<?xml version="1.0" standalone="no"?>
<!DOCTYPE svg PUBLIC "-//W3C//DTD SVG 20010904//EN"
 "http://www.w3.org/TR/2001/REC-SVG-20010904/DTD/svg10.dtd">
<svg version="1.0" xmlns="http://www.w3.org/2000/svg"
 width="650.000000pt" height="650.000000pt" viewBox="0 0 650.000000 650.000000"
 preserveAspectRatio="xMidYMid meet">
<metadata>
Created by potrace 1.13, written by Peter Selinger 2001-2015
</metadata>
<g transform="translate(0.000000,650.000000) scale(0.100000,-0.100000)"
fill="#000000" stroke="none">
<path d="M3170 5803 c-232 -22 -381 -50 -545 -104 -266 -86 -483 -224 -642
-409 -194 -226 -310 -501 -369 -882 -23 -142 -26 -610 -6 -793 54 -495 189
-1070 384 -1635 55 -158 67 -185 84 -183 10 1 93 11 184 22 91 12 201 24 245
29 l80 7 6 50 c6 48 -5 413 -12 419 -2 1 -39 21 -82 44 -44 23 -99 59 -125 80
-153 125 -277 368 -336 661 -13 64 -29 115 -39 125 -9 10 -17 21 -17 26 0 5
-11 22 -25 38 -32 38 -75 49 -114 29 -26 -13 -32 -13 -59 5 -79 50 -144 201
-145 338 -2 104 13 150 66 207 52 56 120 78 223 70 l73 -5 7 55 c3 30 9 109
13 176 l6 121 110 27 c93 23 178 32 545 59 239 18 438 35 442 39 3 3 14 128
23 276 9 149 20 278 24 288 4 12 36 -102 86 -301 l79 -319 260 -6 c144 -4 348
-7 453 -7 106 0 224 -5 263 -12 69 -12 70 -13 71 -43 1 -56 17 -189 42 -350
14 -88 28 -185 32 -216 l6 -56 57 -10 c135 -26 240 -91 283 -175 62 -121 31
-332 -64 -436 l-41 -44 -13 38 c-17 48 -31 64 -70 80 -58 25 -129 -20 -140
-88 l-6 -38 -34 20 c-19 11 -36 20 -38 20 -3 0 -18 -30 -35 -66 -108 -239
-316 -512 -465 -613 -27 -19 -51 -35 -53 -36 -1 -1 4 -49 13 -106 21 -141 60
-300 76 -310 8 -5 44 -9 80 -9 171 0 594 -57 744 -100 38 -11 70 -18 72 -16 5
4 57 679 73 931 6 94 13 303 17 465 19 903 -112 1543 -408 1990 -79 119 -263
306 -374 379 -214 140 -458 221 -764 251 -101 10 -130 10 -201 3z m185 -228
c225 -25 401 -77 565 -167 183 -100 344 -267 440 -457 73 -145 130 -384 130
-544 0 -69 -7 -82 -40 -72 -17 6 -20 15 -20 76 0 200 -67 431 -176 607 -62
100 -207 244 -307 306 -147 91 -321 152 -537 188 -114 19 -453 16 -569 -6
-513 -95 -797 -400 -851 -914 -6 -63 -10 -157 -8 -210 l3 -97 -25 0 c-24 0
-25 4 -33 80 -11 104 7 308 38 429 49 195 131 343 265 476 185 186 386 270
755 313 76 9 252 5 370 -8z"/>
<path d="M2639 4186 c-105 -30 -204 -102 -284 -206 -43 -56 -56 -90 -35 -90 6
0 59 21 118 46 102 44 113 46 242 55 171 11 224 24 250 56 36 46 25 105 -24
130 -41 22 -205 27 -267 9z"/>
<path d="M3714 4138 c-38 -30 -44 -38 -44 -71 0 -17 10 -38 26 -54 25 -25 28
-26 117 -19 51 4 136 10 189 14 53 4 99 10 102 13 18 18 -277 138 -340 139
-12 0 -34 -10 -50 -22z"/>
<path d="M2606 3845 c-58 -62 -43 -199 25 -235 31 -17 102 -4 132 24 56 52 54
158 -3 209 -42 38 -120 39 -154 2z"/>
<path d="M3833 3846 c-24 -21 -28 -32 -31 -93 -3 -50 0 -79 11 -100 32 -61
119 -68 179 -14 26 23 32 37 36 83 7 94 -39 148 -127 148 -28 0 -48 -7 -68
-24z"/>
<path d="M3050 2974 c-19 -2 -78 -9 -130 -14 -117 -13 -320 -50 -320 -59 0 -3
26 -17 58 -29 49 -20 61 -30 81 -68 13 -25 52 -71 87 -104 165 -153 430 -193
626 -94 64 32 148 111 199 186 31 45 50 62 96 83 65 30 63 35 -27 55 -138 29
-249 41 -435 44 -110 3 -216 2 -235 0z"/>
<path d="M2495 1459 c-16 -5 -212 -56 -435 -113 -501 -130 -713 -184 -764
-197 l-39 -11 79 -31 79 -32 7 -65 c4 -36 17 -166 28 -290 11 -124 26 -292 34
-375 8 -82 17 -194 21 -247 l7 -98 1648 0 1647 0 12 58 c7 31 30 138 52 237
23 99 53 241 69 315 15 74 42 195 59 268 17 73 31 137 31 141 0 5 -84 48 -187
96 -104 48 -309 145 -458 215 -148 70 -277 130 -287 133 -13 4 -9 -11 18 -69
19 -41 34 -79 34 -83 0 -5 -28 -14 -61 -20 -166 -33 -332 -112 -579 -275 -155
-104 -288 -176 -321 -176 -8 0 -56 20 -105 44 -49 25 -156 71 -239 104 -305
120 -377 153 -370 171 17 43 48 150 65 226 20 94 20 94 -45 74z"/>
</g>
</svg>
